HIERARCHY
ROOT pelvis
{
	OFFSET 0.00 0.00 0.00
	CHANNELS 6 Xposition Yposition Zposition Xrotation Yrotation Zrotation
	JOINT lfemur
	{
		OFFSET 0.00000 4.05602 0.00000
		CHANNELS 3 Xrotation Yrotation Zrotation
		JOINT ltibia
		{
			OFFSET 0.00000 0.00000 -16.00820
			CHANNELS 3 Xrotation Yrotation Zrotation
			JOINT lfoot
			{
				OFFSET 0.00000 0.00000 -15.75048
				CHANNELS 3 Xrotation Yrotation Zrotation
				JOINT ltoes
				{
					OFFSET 3.98413 0.00000 -1.32706
					CHANNELS 3 Xrotation Yrotation Zrotation
				}
			}
		}
	}
	JOINT rfemur
	{
		OFFSET 0.00000 -4.05602 0.00000
		CHANNELS 3 Xrotation Yrotation Zrotation
		JOINT rtibia
		{
			OFFSET 0.00000 0.00000 -16.01513
			CHANNELS 3 Xrotation Yrotation Zrotation
			JOINT rfoot
			{
				OFFSET 0.00000 0.00000 -14.97088
				CHANNELS 3 Xrotation Yrotation Zrotation
				JOINT rtoes
				{
					OFFSET 3.58593 0.00000 -1.84314
					CHANNELS 3 Xrotation Yrotation Zrotation
				}
			}
		}
	}
	JOINT lowerback
	{
		OFFSET -1.96850 0.00000 3.64018
		CHANNELS 3 Xrotation Yrotation Zrotation
		JOINT upperback
		{
			OFFSET 1.09986 0.00000 5.68050
			CHANNELS 3 Xrotation Yrotation Zrotation
			JOINT lclavicle
			{
				OFFSET 0.00000 0.00000 8.27069
				CHANNELS 3 Xrotation Yrotation Zrotation
				JOINT lhumerus
				{
					OFFSET 0.00000 5.44900 -0.48966
					CHANNELS 3 Xrotation Yrotation Zrotation
					JOINT lradius
					{
						OFFSET 0.00000 0.00000 -10.57624
						CHANNELS 3 Xrotation Yrotation Zrotation
						JOINT lhand
						{
							OFFSET 0.00000 0.00000 -8.37809
							CHANNELS 3 Xrotation Yrotation Zrotation
						}
					}
				}
			}
			JOINT rclavicle
			{
				OFFSET 0.00000 0.00000 8.27069
				CHANNELS 3 Xrotation Yrotation Zrotation
				JOINT rhumerus
				{
					OFFSET 0.00000 -5.70459 -0.50171
					CHANNELS 3 Xrotation Yrotation Zrotation
					JOINT rradius
					{
						OFFSET 0.00000 0.00000 -10.59888
						CHANNELS 3 Xrotation Yrotation Zrotation
						JOINT rhand
						{
							OFFSET 0.00000 0.00000 -8.75951
							CHANNELS 3 Xrotation Yrotation Zrotation
						}
					}
				}
			}
			JOINT LowerNeck
			{
				OFFSET 0.00000 0.00000 8.27069
				CHANNELS 3 Xrotation Yrotation Zrotation
				JOINT Neck
				{
					OFFSET -1.62204 0.11373 3.12761
					CHANNELS 3 Xrotation Yrotation Zrotation
				}
			}
		}
	}
}
MOTION
Frames: 15
Frame Time: 0.008333
 -3.9286 22.4292 32.2903 8.6202 -0.1215 79.1096 -6.9988 10.3726 -9.0542 -0.0000 -1.1261 22.8516 0.7500 -13.7649 2.8982 0.0000 -11.8620 0.0000 -7.3618 -5.1792 -10.2055 0.0000 26.6802 9.3883 1.4974 -23.5238 5.7295 -0.0000 2.6269 0.0000 -2.8393 7.7900 2.5978 -3.9698 1.5066 -1.2254 -8.7401 0.0000 -1.6561 30.5020 -5.2433 -22.5499 0.0000 -30.7190 -23.2346 -1.2501 -20.1473 -0.0000 6.8997 -0.0000 7.3736 -27.2170 -4.4752 29.9132 -0.0000 -32.0807 9.1880 8.5677 -6.8559 0.0000 -24.5355 35.1128 25.6539 19.2898 -37.7574 -32.0616
 -3.9269 22.4129 32.2922 8.6253 -0.1315 79.1318 -6.9750 10.3675 -9.0365 -0.0000 -1.1596 22.7978 0.7543 -13.7157 2.9148 -0.0000 -11.8650 -0.0000 -7.3176 -5.1890 -10.1257 0.0000 26.6507 9.3709 1.4715 -23.4698 5.6310 0.0000 2.6324 -0.0000 -2.8881 7.8348 2.5857 -3.9895 1.5557 -1.2476 -8.7881 0.0000 -1.6593 30.6579 -5.6326 -22.6816 0.0000 -31.5513 -22.8521 -0.9153 -20.1473 -0.0000 7.0036 -0.0000 7.3751 -27.3779 -4.9524 30.0190 0.0000 -32.8373 8.9208 8.0036 -7.0104 0.0000 -24.2129 35.2752 25.4541 19.6194 -37.7218 -31.6615
 -3.9252 22.3971 32.2951 8.6143 -0.1472 79.1717 -6.9393 10.3453 -9.0256 -0.0000 -1.1864 22.7398 0.7559 -13.6683 2.9209 0.0000 -11.8679 0.0000 -7.2631 -5.1914 -10.0636 0.0000 26.5883 9.3340 1.4511 -23.4095 5.5534 0.0000 2.6372 0.0000 -2.9218 7.8692 2.5684 -4.0050 1.5932 -1.2823 -8.8278 0.0000 -1.6642 30.7895 -6.0016 -22.8141 0.0000 -32.3335 -22.4977 -0.5947 -20.1424 0.0000 7.1011 -0.0000 7.3671 -27.5253 -5.4032 30.1268 -0.0000 -33.5900 8.6593 7.4623 -7.1633 0.0000 -23.8950 35.4235 25.2568 19.9327 -37.6714 -31.2748
 -3.9235 22.3815 32.2989 8.5826 -0.1673 79.2292 -6.8929 10.2988 -9.0157 -0.0000 -1.2025 22.6721 0.7547 -13.6248 2.9163 -0.0000 -11.8691 -0.0000 -7.2002 -5.1934 -10.0209 0.0000 26.4963 9.2651 1.4398 -23.3442 5.5111 -0.0000 2.6468 0.0000 -2.9422 7.8941 2.5442 -4.0142 1.6078 -1.3280 -8.8574 0.0000 -1.6725 30.8947 -6.3437 -22.9531 0.0000 -33.0641 -22.1782 -0.2873 -20.1394 0.0000 7.1919 -0.0000 7.3496 -27.6591 -5.8218 30.2374 0.0000 -34.3393 8.4027 6.9553 -7.3058 0.0000 -23.5827 35.5733 25.0558 20.2288 -37.6146 -30.8909
 -3.9221 22.3659 32.3035 8.5296 -0.1888 79.3047 -6.8392 10.2261 -9.0087 -0.0000 -1.2071 22.5850 0.7541 -13.5842 2.9141 0.0000 -11.8680 -0.0000 -7.1343 -5.1970 -10.0045 0.0000 26.3764 9.1683 1.4383 -23.2750 5.5062 -0.0000 2.6564 -0.0000 -2.9542 7.9086 2.5134 -4.0128 1.6013 -1.3855 -8.8746 0.0000 -1.6801 30.9696 -6.6629 -23.1001 0.0000 -33.7439 -21.9047 -0.0064 -20.1334 0.0000 7.2723 -0.0000 7.3213 -27.7771 -6.2099 30.3503 -0.0000 -35.0850 8.1598 6.4890 -7.4345 0.0000 -23.2846 35.7213 24.8547 20.5131 -37.5588 -30.5099
 -3.9208 22.3506 32.3087 8.4591 -0.2122 79.3933 -6.7794 10.1337 -8.9935 -0.0000 -1.2047 22.4606 0.7580 -13.5435 2.9289 0.0000 -11.8687 0.0000 -7.0657 -5.1998 -10.0128 0.0000 26.2293 9.0476 1.4461 -23.1978 5.5374 -0.0000 2.6574 -0.0000 -2.9586 7.9176 2.4785 -4.0016 1.5706 -1.4508 -8.8778 0.0000 -1.6894 31.0154 -6.9538 -23.2607 0.0000 -34.3772 -21.6703 0.2537 -20.1226 -0.0000 7.3426 -0.0000 7.2832 -27.8809 -6.5624 30.4663 -0.0000 -35.8315 7.9356 6.0705 -7.5432 -0.0000 -23.0076 35.8774 24.6612 20.7914 -37.5214 -30.1295
 -3.9194 22.3358 32.3145 8.3748 -0.2386 79.4916 -6.7139 10.0263 -8.9598 -0.0000 -1.1963 22.2913 0.7669 -13.5038 2.9634 0.0000 -11.8705 -0.0000 -6.9929 -5.2001 -10.0392 0.0000 26.0584 8.9109 1.4599 -23.1126 5.5916 0.0000 2.6553 0.0000 -2.9564 7.9229 2.4413 -3.9803 1.5198 -1.5208 -8.8645 0.0000 -1.6986 31.0293 -7.2190 -23.4363 -0.0000 -34.9643 -21.4688 0.4920 -20.1085 -0.0000 7.4022 -0.0000 7.2368 -27.9710 -6.8780 30.5831 -0.0000 -36.5792 7.7379 5.7002 -7.6366 0.0000 -22.7457 36.0432 24.4707 21.0638 -37.5093 -29.7412
 -3.9183 22.3207 32.3205 8.2702 -0.2632 79.5990 -6.6463 9.8950 -8.9273 -0.0000 -1.1821 22.0999 0.7797 -13.4642 3.0127 0.0000 -11.8737 0.0000 -6.9201 -5.2114 -10.0812 0.0000 25.8733 8.7661 1.4772 -23.0227 5.6591 -0.0000 2.6534 0.0000 -2.9518 7.9197 2.4000 -3.9505 1.4475 -1.5933 -8.8367 0.0000 -1.7071 31.0150 -7.4568 -23.6250 -0.0000 -35.5087 -21.3027 0.7120 -20.0915 -0.0000 7.4543 -0.0000 7.1841 -28.0510 -7.1542 30.6989 -0.0000 -37.3304 7.5681 5.3800 -7.7125 0.0000 -22.4941 36.2224 24.2847 21.3315 -37.5304 -29.3394
 -3.9174 22.3055 32.3267 8.1500 -0.2878 79.7162 -6.5752 9.7452 -8.9106 -0.0000 -1.1632 21.9090 0.7936 -13.4247 3.0664 -0.0000 -11.8776 -0.0000 -6.8452 -5.2297 -10.1317 0.0000 25.6750 8.6296 1.4922 -22.9282 5.7182 -0.0000 2.6529 0.0000 -2.9438 7.9126 2.3533 -3.9138 1.3566 -1.6678 -8.7940 -0.0000 -1.7127 30.9733 -7.6700 -23.8250 0.0000 -36.0135 -21.1764 0.9096 -20.0691 0.0000 7.5005 -0.0000 7.1244 -28.1215 -7.3931 30.8108 -0.0000 -38.0845 7.4278 5.1157 -7.7705 0.0000 -22.2464 36.4032 24.1055 21.5955 -37.5783 -28.9271
 -3.9167 22.2903 32.3330 8.0170 -0.3128 79.8411 -6.5011 9.5815 -8.9184 -0.0000 -1.1429 21.7341 0.8072 -13.3851 3.1188 0.0000 -11.8847 0.0000 -6.7681 -5.2541 -10.1837 0.0000 25.4668 8.5109 1.5022 -22.8323 5.7579 -0.0000 2.6576 0.0000 -2.9316 7.9013 2.3032 -3.8721 1.2526 -1.7450 -8.7393 0.0000 -1.7153 30.9095 -7.8579 -24.0318 0.0000 -36.4854 -21.0960 1.0717 -20.0404 0.0000 7.5427 -0.0000 7.0588 -28.1864 -7.5945 30.9162 0.0000 -38.8445 7.3104 4.9170 -7.8093 0.0000 -22.0122 36.5783 23.9441 21.8652 -37.6544 -28.5120
 -3.9163 22.2751 32.3394 7.8739 -0.3379 79.9714 -6.4256 9.4079 -8.9491 -0.0000 -1.1231 21.5774 0.8203 -13.3461 3.1698 -0.0000 -11.8930 -0.0000 -6.6892 -5.2839 -10.2330 0.0000 25.2517 8.4121 1.5060 -22.7375 5.7740 -0.0000 2.6682 -0.0000 -2.9157 7.8851 2.2513 -3.8252 1.1433 -1.8234 -8.6760 0.0000 -1.7136 30.8282 -8.0227 -24.2393 0.0000 -36.9295 -21.0638 1.1838 -20.0089 -0.0000 7.5821 -0.0000 6.9875 -28.2491 -7.7609 31.0114 0.0000 -39.6112 7.2149 4.7858 -7.8362 -0.0000 -21.7996 36.7378 23.8039 22.1493 -37.7533 -28.1014
 -3.9164 22.2601 32.3459 7.7253 -0.3630 80.1038 -6.3505 9.2302 -8.9955 -0.0000 -1.1064 21.4374 0.8331 -13.3063 3.2190 0.0000 -11.9039 -0.0000 -6.6092 -5.3159 -10.2776 0.0000 25.0303 8.3326 1.5032 -22.6430 5.7643 -0.0000 2.6786 0.0000 -2.8974 7.8662 2.1986 -3.7735 1.0327 -1.9002 -8.6069 0.0000 -1.7089 30.7336 -8.1635 -24.4447 0.0000 -37.3482 -21.0754 1.2444 -19.9786 -0.0000 7.6197 -0.0000 6.9124 -28.3122 -7.8920 31.0949 0.0000 -40.3828 7.1383 4.7151 -7.8587 0.0000 -21.6095 36.8785 23.6832 22.4441 -37.8688 -27.7039
 -3.9170 22.2453 32.3524 7.5732 -0.3869 80.2345 -6.2779 9.0509 -9.0502 -0.0000 -1.0938 21.3175 0.8435 -13.2646 3.2594 0.0000 -11.9165 0.0000 -6.5295 -5.3506 -10.3169 0.0000 24.8056 8.2644 1.4956 -22.5496 5.7365 0.0000 2.6877 -0.0000 -2.8774 7.8444 2.1482 -3.7178 0.9231 -1.9757 -8.5341 0.0000 -1.7026 30.6290 -8.2788 -24.6489 0.0000 -37.7412 -21.1190 1.2687 -19.9517 0.0000 7.6566 -0.0000 6.8373 -28.3768 -7.9867 31.1677 -0.0000 -41.1533 7.0806 4.6861 -7.8821 0.0000 -21.4366 37.0027 23.5738 22.7388 -37.9949 -27.3241
 -3.9181 22.2307 32.3589 7.4192 -0.4098 80.3613 -6.2077 8.8729 -9.1065 -0.0000 -1.0874 21.2201 0.8495 -13.2217 3.2825 0.0000 -11.9287 -0.0000 -6.4498 -5.3883 -10.3462 0.0000 24.5809 8.1968 1.4855 -22.4584 5.6989 -0.0000 2.6951 -0.0000 -2.8553 7.8213 2.1019 -3.6591 0.8155 -2.0511 -8.4590 0.0000 -1.6936 30.5180 -8.3689 -24.8556 0.0000 -38.1088 -21.1789 1.2627 -19.9339 0.0000 7.6932 -0.0000 6.7618 -28.4425 -8.0487 31.2372 -0.0000 -41.9146 7.0280 4.6826 -7.9130 -0.0000 -21.2816 37.1106 23.4770 23.0263 -38.1317 -26.9713
 -3.9195 22.2165 32.3652 7.2645 -0.4325 80.4843 -6.1389 8.6994 -9.1616 -0.0000 -1.0907 21.1347 0.8525 -13.1762 3.2938 0.0000 -11.9397 0.0000 -6.3697 -5.4281 -10.3664 0.0000 24.3587 8.1233 1.4749 -22.3714 5.6594 0.0000 2.7003 0.0000 -2.8304 7.7971 2.0595 -3.5977 0.7114 -2.1267 -8.3839 0.0000 -1.6828 30.4049 -8.4329 -25.0630 0.0000 -38.4534 -21.2497 1.2209 -19.9301 0.0000 7.7300 -0.0000 6.6841 -28.5092 -8.0822 31.3089 -0.0000 -42.6609 6.9773 4.6995 -7.9540 -0.0000 -21.1431 37.2020 23.3934 23.2990 -38.2779 -26.6526
